<?xml version="1.0" standalone="no"?><svg xmlns="http://www.w3.org/2000/svg" viewBox="0 0 1440 320"><path fill="#273036" fill-opacity="0.85" d="M0,128L24,149.3C48,171,96,213,144,208C192,203,240,149,288,133.3C336,117,384,139,432,160C480,181,528,203,576,181.3C624,160,672,96,720,80C768,64,816,96,864,122.7C912,149,960,171,1008,165.3C1056,160,1104,128,1152,133.3C1200,139,1248,181,1296,181.3C1344,181,1392,139,1416,117.3L1440,96L1440,320L1416,320C1392,320,1344,320,1296,320C1248,320,1200,320,1152,320C1104,320,1056,320,1008,320C960,320,912,320,864,320C816,320,768,320,720,320C672,320,624,320,576,320C528,320,480,320,432,320C384,320,336,320,288,320C240,320,192,320,144,320C96,320,48,320,24,320L0,320Z"></path></svg>